<svg width="550" height="550" viewBox="0 0 550 550" fill="none" xmlns="http://www.w3.org/2000/svg">
<g clip-path="url(#clip0_8_354)">
<rect width="550" height="550" fill="#F5F7FB"/>
<path d="M244.922 319.42C244.861 318.883 244.611 318.466 244.172 318.17C243.732 317.871 243.179 317.722 242.513 317.722C242.036 317.722 241.623 317.797 241.274 317.949C240.926 318.097 240.655 318.301 240.462 318.562C240.272 318.82 240.178 319.114 240.178 319.443C240.178 319.72 240.242 319.958 240.371 320.159C240.503 320.36 240.676 320.528 240.888 320.665C241.104 320.797 241.335 320.909 241.581 321C241.827 321.087 242.064 321.159 242.291 321.216L243.428 321.511C243.799 321.602 244.179 321.725 244.57 321.881C244.96 322.036 245.321 322.241 245.655 322.494C245.988 322.748 246.257 323.062 246.462 323.438C246.67 323.812 246.774 324.261 246.774 324.784C246.774 325.443 246.604 326.028 246.263 326.54C245.926 327.051 245.435 327.455 244.791 327.75C244.151 328.045 243.376 328.193 242.467 328.193C241.596 328.193 240.842 328.055 240.206 327.778C239.57 327.502 239.071 327.11 238.712 326.602C238.352 326.091 238.153 325.485 238.115 324.784H239.876C239.911 325.205 240.047 325.555 240.286 325.835C240.528 326.112 240.837 326.318 241.212 326.455C241.59 326.587 242.005 326.653 242.456 326.653C242.952 326.653 243.393 326.576 243.78 326.42C244.17 326.261 244.477 326.042 244.7 325.761C244.924 325.477 245.036 325.146 245.036 324.767C245.036 324.422 244.937 324.14 244.74 323.92C244.547 323.701 244.284 323.519 243.95 323.375C243.621 323.231 243.248 323.104 242.831 322.994L241.456 322.619C240.524 322.366 239.786 321.992 239.24 321.5C238.698 321.008 238.428 320.356 238.428 319.545C238.428 318.875 238.609 318.29 238.973 317.79C239.337 317.29 239.829 316.902 240.45 316.625C241.071 316.345 241.772 316.205 242.553 316.205C243.34 316.205 244.036 316.343 244.638 316.619C245.244 316.896 245.721 317.277 246.07 317.761C246.418 318.242 246.6 318.795 246.615 319.42H244.922ZM252.81 319.273V320.636H248.043V319.273H252.81ZM249.321 317.182H251.02V325.438C251.02 325.767 251.069 326.015 251.168 326.182C251.266 326.345 251.393 326.456 251.548 326.517C251.707 326.574 251.88 326.602 252.065 326.602C252.202 326.602 252.321 326.593 252.423 326.574C252.526 326.555 252.605 326.54 252.662 326.528L252.969 327.932C252.87 327.97 252.73 328.008 252.548 328.045C252.366 328.087 252.139 328.11 251.866 328.114C251.42 328.121 251.003 328.042 250.616 327.875C250.23 327.708 249.918 327.451 249.679 327.102C249.44 326.754 249.321 326.316 249.321 325.79V317.182ZM257.229 328.193C256.676 328.193 256.176 328.091 255.729 327.886C255.282 327.678 254.928 327.377 254.666 326.983C254.409 326.589 254.28 326.106 254.28 325.534C254.28 325.042 254.375 324.636 254.564 324.318C254.753 324 255.009 323.748 255.331 323.562C255.653 323.377 256.013 323.237 256.411 323.142C256.808 323.047 257.214 322.975 257.626 322.926C258.149 322.866 258.573 322.816 258.899 322.778C259.225 322.737 259.462 322.67 259.609 322.58C259.757 322.489 259.831 322.341 259.831 322.136V322.097C259.831 321.6 259.691 321.216 259.411 320.943C259.134 320.67 258.721 320.534 258.172 320.534C257.6 320.534 257.149 320.661 256.82 320.915C256.494 321.165 256.268 321.443 256.143 321.75L254.547 321.386C254.736 320.856 255.013 320.428 255.376 320.102C255.744 319.773 256.166 319.534 256.643 319.386C257.121 319.235 257.623 319.159 258.149 319.159C258.498 319.159 258.867 319.201 259.257 319.284C259.651 319.364 260.018 319.511 260.359 319.727C260.704 319.943 260.986 320.252 261.206 320.653C261.426 321.051 261.536 321.568 261.536 322.205V328H259.876V326.807H259.808C259.698 327.027 259.534 327.242 259.314 327.455C259.094 327.667 258.812 327.843 258.467 327.983C258.123 328.123 257.71 328.193 257.229 328.193ZM257.598 326.83C258.068 326.83 258.469 326.737 258.803 326.551C259.14 326.366 259.395 326.123 259.57 325.824C259.748 325.521 259.837 325.197 259.837 324.852V323.727C259.776 323.788 259.659 323.845 259.484 323.898C259.314 323.947 259.119 323.991 258.899 324.028C258.679 324.062 258.465 324.095 258.257 324.125C258.049 324.152 257.875 324.174 257.734 324.193C257.405 324.235 257.104 324.305 256.831 324.403C256.562 324.502 256.346 324.644 256.183 324.83C256.024 325.011 255.945 325.254 255.945 325.557C255.945 325.977 256.1 326.295 256.411 326.511C256.721 326.723 257.117 326.83 257.598 326.83ZM263.798 328V319.273H265.44V320.659H265.531C265.69 320.189 265.971 319.82 266.372 319.551C266.777 319.278 267.236 319.142 267.747 319.142C267.853 319.142 267.978 319.146 268.122 319.153C268.27 319.161 268.385 319.17 268.469 319.182V320.807C268.401 320.788 268.279 320.767 268.105 320.744C267.931 320.718 267.757 320.705 267.582 320.705C267.181 320.705 266.823 320.79 266.509 320.96C266.198 321.127 265.952 321.36 265.77 321.659C265.588 321.955 265.497 322.292 265.497 322.67V328H263.798ZM274.528 319.273V320.636H269.761V319.273H274.528ZM271.04 317.182H272.739V325.438C272.739 325.767 272.788 326.015 272.886 326.182C272.985 326.345 273.112 326.456 273.267 326.517C273.426 326.574 273.598 326.602 273.784 326.602C273.92 326.602 274.04 326.593 274.142 326.574C274.244 326.555 274.324 326.54 274.381 326.528L274.688 327.932C274.589 327.97 274.449 328.008 274.267 328.045C274.085 328.087 273.858 328.11 273.585 328.114C273.138 328.121 272.722 328.042 272.335 327.875C271.949 327.708 271.636 327.451 271.398 327.102C271.159 326.754 271.04 326.316 271.04 325.79V317.182ZM286.534 331.273V326.642H286.432C286.33 326.828 286.182 327.04 285.989 327.278C285.799 327.517 285.538 327.725 285.205 327.903C284.871 328.081 284.439 328.17 283.909 328.17C283.205 328.17 282.576 327.991 282.023 327.631C281.473 327.267 281.042 326.75 280.727 326.08C280.417 325.405 280.261 324.597 280.261 323.653C280.261 322.71 280.419 321.903 280.733 321.233C281.051 320.562 281.487 320.049 282.04 319.693C282.593 319.337 283.22 319.159 283.92 319.159C284.462 319.159 284.898 319.25 285.227 319.432C285.561 319.61 285.818 319.818 286 320.057C286.186 320.295 286.33 320.506 286.432 320.688H286.574V319.273H288.233V331.273H286.534ZM284.284 326.722C284.773 326.722 285.186 326.593 285.523 326.335C285.864 326.074 286.121 325.712 286.295 325.25C286.473 324.788 286.562 324.25 286.562 323.636C286.562 323.03 286.475 322.5 286.301 322.045C286.127 321.591 285.871 321.237 285.534 320.983C285.197 320.729 284.78 320.602 284.284 320.602C283.773 320.602 283.347 320.735 283.006 321C282.665 321.265 282.407 321.627 282.233 322.085C282.063 322.544 281.977 323.061 281.977 323.636C281.977 324.22 282.064 324.744 282.239 325.21C282.413 325.676 282.67 326.045 283.011 326.318C283.356 326.587 283.78 326.722 284.284 326.722ZM296.045 324.381V319.273H297.75V328H296.08V326.489H295.989C295.788 326.955 295.466 327.343 295.023 327.653C294.583 327.96 294.036 328.114 293.381 328.114C292.82 328.114 292.324 327.991 291.892 327.744C291.464 327.494 291.127 327.125 290.881 326.636C290.638 326.148 290.517 325.544 290.517 324.824V319.273H292.216V324.619C292.216 325.214 292.381 325.687 292.71 326.04C293.04 326.392 293.468 326.568 293.994 326.568C294.313 326.568 294.629 326.489 294.943 326.33C295.261 326.17 295.525 325.93 295.733 325.608C295.945 325.286 296.049 324.877 296.045 324.381ZM300.033 328V319.273H301.732V328H300.033ZM300.891 317.926C300.595 317.926 300.341 317.828 300.129 317.631C299.921 317.43 299.817 317.191 299.817 316.915C299.817 316.634 299.921 316.396 300.129 316.199C300.341 315.998 300.595 315.898 300.891 315.898C301.186 315.898 301.438 315.998 301.646 316.199C301.858 316.396 301.964 316.634 301.964 316.915C301.964 317.191 301.858 317.43 301.646 317.631C301.438 317.828 301.186 317.926 300.891 317.926ZM303.835 328V326.835L308.562 320.83V320.75H303.989V319.273H310.682V320.511L306.136 326.443V326.523H310.841V328H303.835Z" fill="#F5F7FB"/>
<path fill-rule="evenodd" clip-rule="evenodd" d="M-5.55191 436.906C35.9614 433.775 82.2425 422.279 112.306 451.109C145.581 483.02 155.282 534.703 142.701 579.081C130.767 621.18 93.7448 652.092 51.8208 664.476C16.5281 674.902 -15.4332 650.605 -49.1007 635.738C-85.3375 619.737 -133.641 614.993 -145.741 577.239C-158.358 537.868 -132.269 496.588 -103.064 467.353C-77.7328 441.995 -41.2727 439.6 -5.55191 436.906Z" fill="#DEEBF8"/>
<path fill-rule="evenodd" clip-rule="evenodd" d="M455.409 81.3947C427.121 50.8508 389.318 21.7816 393.173 -19.6933C397.439 -65.599 431.854 -105.359 474.419 -123.133C514.797 -139.994 562.035 -130.256 597.822 -105.149C627.947 -84.0141 628.823 -43.8756 638.141 -8.27104C648.17 30.0508 674.521 70.8106 652.501 103.779C629.538 138.159 580.991 143.432 539.931 138.768C504.318 134.723 479.751 107.677 455.409 81.3947Z" fill="#FFFAD1"/>
</g>
<defs>
<clipPath id="clip0_8_354">
<rect width="550" height="550" fill="white"/>
</clipPath>
</defs>
</svg>
